<?xml version="1.0" encoding="UTF-8"?>
<!DOCTYPE svg PUBLIC "-//W3C//DTD SVG 1.1//EN" "http://www.w3.org/Graphics/SVG/1.1/DTD/svg11.dtd">
<!-- Creator: CorelDRAW 2020 (64-Bit) -->
<svg xmlns="http://www.w3.org/2000/svg" xml:space="preserve" width="20mm" height="20mm" version="1.1" style="shape-rendering:geometricPrecision; text-rendering:geometricPrecision; image-rendering:optimizeQuality; fill-rule:evenodd; clip-rule:evenodd"
viewBox="0 0 2000 2000"
 xmlns:xlink="http://www.w3.org/1999/xlink"
 xmlns:xodm="http://www.corel.com/coreldraw/odm/2003">
 <defs>
  <style type="text/css">
   <![CDATA[
    .fil0 {fill:#666666}
    .fil1 {fill:#BF070E}
   ]]>
  </style>
 </defs>
 <g id="Layer_x0020_1">
  <metadata id="CorelCorpID_0Corel-Layer"/>
  <path class="fil0" d="M1191.48 1122.08c9.73,-1.13 18.02,-2.5 28.66,-2.98 19.19,-1.79 64.55,-3.53 82.22,-0.74 9.26,0.15 17.88,1.2 21.38,2.35 8.87,0.47 11.5,2.1 20.25,2.95 24.19,5.16 38.56,10.51 54.7,18.25l14.08 7.82c18.23,14.41 23.44,23.2 28.02,41.36 -0.16,2.87 0.24,5.88 0.03,9.06 -0.23,3.65 -1.58,6.23 -2.49,10.07 -1.6,6.81 -6.7,15.43 -11.25,23.24 -1.58,1.71 -2.65,3.26 -4.08,4.87 -2.73,3.09 -0.68,2.05 -4.3,3.49 -6.44,15.83 -53.14,41.92 -82.57,54.84 -16.14,7.08 -35.1,13.78 -55.09,19.2 -9.7,2.63 -19.71,5.6 -30.4,7.73 -8.81,1.76 -25.48,5.57 -33.22,5.97 -6.69,1.9 -19.48,3.44 -28.93,3.61l-15.5 1.35 -9.55 1.25c-3.85,0.27 -8.03,0.35 -12.35,0.48 -22.86,0.71 -39.98,0.25 -60.48,-1.75 -4.46,-0.43 -7.16,-0.5 -8.81,-1.67 -6.55,0.26 -12.84,-0.55 -16.49,-2 -27.62,-3.04 -61.4,-16.27 -73.65,-25.41 -8.09,-6.04 -15.5,-10.2 -20.95,-18.28 -3.54,-5.24 -11.5,-16.34 -9.79,-23.26 -7.06,-8.87 6.49,-35.75 15.96,-47.99 33.83,-43.7 121.53,-79.82 214.6,-93.81zm99.81 -87.36l-22.35 0.86c-19.53,1.14 -37.21,2.3 -56.52,4.55 -8.92,1.04 -17.71,1.89 -26.87,3.19 -9.34,1.32 -17.54,2.79 -26.02,3.86 -8.77,1.61 -17.07,2.83 -25.28,4.48 -9.05,1.82 -18.14,4.6 -26.03,4.72l-95.16 26.05c-4.22,2.42 -23.78,8.62 -32.8,12.17 -4.29,1.69 -28.65,11.47 -30.74,11.78 -8.91,5.74 -27.17,12.5 -38.46,18.33 -5.66,2.92 -10.78,5.92 -17.61,9.47 -6.4,3.33 -10.4,6.59 -16.56,9.07l-29.58 19.67c-120.99,85.81 -77.85,154.69 -79.66,159.22 2.26,1.21 0.16,-0.82 2.36,1.89 0.54,0.66 0.97,1.88 1.29,2.65 4.69,11.17 23.14,28.68 22.79,32.8 3.2,1.18 26.98,32.82 27.9,35.41 2.93,1.72 5.46,6.01 7.21,8.44 2.41,3.36 4.48,5.42 6.98,8.66 3.32,4.29 12.43,14.8 12.82,18.53 2.89,1.16 26.85,32.78 26.39,34.92 3.24,1.15 0.61,-0.32 2.9,1.65l19.65 25.63c2.9,3.33 6.31,6.02 6.35,10.09 2.93,0.83 5.88,5.92 7.38,7.87l13.58 17.93c2.48,2.77 5.31,5.8 6.81,9.14l5.19 6.25c14.43,20.79 27.19,31.2 85.79,23.46 15.48,-3.31 26.04,-7.16 37.74,-12.8 9.84,-4.75 24.12,-13.44 33.34,-16.73 4.24,-2.89 11.59,-6.08 17.06,-9.06 6.39,-3.48 11.46,-5.92 17.99,-9.27 6.21,-3.18 31.88,-16.29 36.58,-17.62l34.31 -18.03c11.58,-5.88 25.55,-13.15 36.34,-18.03 4.89,-3.3 39.69,-20.8 44.25,-22.27 4.88,-3.36 11.97,-6.4 18,-9.43 5.75,-2.89 11.84,-6.01 18.03,-9.24l36.3 -18.13c11.74,-6.67 23.87,-12.35 36.37,-18.59 9.78,-4.88 27.09,-15.48 37.47,-17.93 2.93,-3.23 9.92,-6.09 16.04,-9.15 6.87,-3.43 10.7,-5.44 17.82,-9.43 3.64,-2.04 31.22,-16.03 35.25,-17.54 3.91,-3.13 34.06,-20.15 51.86,-32.94 59.36,-42.65 79.85,-80.68 83.63,-123.8l-3.33 -23.59c-1.81,-6.8 -9.68,-16.72 -9.89,-21.98 -10.56,-8.34 -6.41,-16.19 -44.06,-41.22 -9.2,-6.11 -19.45,-11.4 -30.98,-17.09 -5.17,-2.55 -35.81,-13.29 -36.69,-14.38 -11.49,-1.86 -31.48,-7.84 -44.27,-10.86 -16.55,-3.91 -30.97,-5.97 -49.83,-8.28 -39.89,-4.87 -76.37,-6.33 -121.08,-5.35z"/>
  <path class="fil1" d="M920.76 629.15c9.04,-2.37 16.5,-5.26 26.85,-6.27 18.11,-3.76 62.42,-7.4 81.77,-1.54 9.35,0.29 18.61,2.51 22.81,4.92 9.15,0.98 12.76,4.4 22.03,6.2 27.31,10.83 44.91,22.07 65.73,38.33l18.81 16.42c26.93,30.27 37.46,48.75 53.01,86.89 1.57,6.01 3.79,12.35 5.51,19.03 1.97,7.65 2.18,13.08 3.6,21.15 2.51,14.29 2.62,32.4 2.79,48.8 -0.55,3.59 -0.68,6.85 -1.13,10.23 -0.87,6.49 0.55,4.31 -2.2,7.34 3.13,33.25 -27.8,88.05 -49.42,115.18 -11.86,14.89 -26.77,28.94 -43.49,40.33 -8.11,5.53 -16.33,11.77 -25.73,16.25 -7.74,3.69 -22.11,11.69 -29.61,12.53 -5.54,4 -17.4,7.22 -26.75,7.58l-14.68 2.85 -8.79 2.63c-3.69,0.56 -7.83,0.71 -12.07,1 -22.43,1.49 -39.83,0.53 -61.53,-3.67 -4.72,-0.92 -7.46,-1.06 -9.82,-3.52 -6.4,0.55 -13.17,-1.14 -17.7,-4.21 -29.46,-6.38 -71.24,-34.17 -89.01,-53.37 -11.74,-12.68 -21.66,-21.41 -32,-38.38 -6.7,-11 -21.38,-34.33 -23.84,-48.86 -12.43,-18.63 -15.13,-75.1 -13.05,-100.81 7.42,-91.79 73.29,-167.65 157.91,-197.03zm47 -183.51l-21.82 1.82c-18.84,2.38 -35.82,4.82 -53.78,9.55 -8.28,2.19 -16.56,3.97 -24.94,6.69 -8.55,2.78 -15.86,5.87 -23.68,8.12 -7.8,3.39 -15.37,5.93 -22.58,9.4 -7.95,3.82 -15.36,9.66 -23.17,9.92l-79.43 54.71c-2.75,5.09 -18.56,18.11 -25.44,25.57 -3.27,3.54 -21.71,24.09 -23.61,24.74 -5.44,12.07 -19.62,26.26 -27.39,38.5 -3.9,6.14 -7.2,12.44 -11.89,19.9 -4.38,6.99 -6.41,13.85 -11.07,19.06l-17.69 41.3c-69.13,180.24 15.64,324.93 16.57,334.45 2.98,2.53 -0.34,-1.73 3.5,3.95 0.94,1.39 2.1,3.96 2.89,5.58 11.44,23.46 40.47,60.23 42.61,68.89 3.92,2.48 46.81,68.93 49.31,74.38 3.97,3.62 9.09,12.62 12.31,17.73 4.43,7.05 7.75,11.38 12.21,18.18 5.92,9.02 21.37,31.08 24.02,38.93 3.58,2.42 46.66,68.85 47.49,73.35 3.94,2.41 0.42,-0.68 3.9,3.46l35.14 53.84c4.92,7 9.95,12.65 12.44,21.18 3.44,1.74 9.47,12.43 12.15,16.54l24.42 37.66c4.15,5.82 8.81,12.18 12.33,19.19l8.97 13.14c26.99,43.67 46.04,65.53 99.96,49.26 13.49,-6.93 21.72,-15.02 30,-26.88 6.97,-9.98 16.01,-28.22 23.24,-35.14 2.49,-6.06 7.91,-12.76 11.58,-19.02 4.28,-7.32 7.88,-12.43 12.39,-19.47 4.28,-6.69 22.03,-34.23 25.92,-37.02l23.42 -37.87c8.03,-12.34 17.6,-27.62 25.45,-37.86 2.89,-6.95 27.12,-43.69 30.78,-46.79 2.86,-7.05 8.11,-13.44 12.3,-19.8 4.01,-6.08 8.22,-12.63 12.45,-19.41l25.34 -38.08c7.71,-14.01 16.41,-25.94 25.14,-39.05 6.82,-10.25 17.73,-32.51 26.63,-37.66 0.98,-6.78 6.24,-12.78 10.51,-19.21 4.8,-7.22 7.41,-11.43 12.12,-19.81 2.41,-4.28 21.53,-33.68 24.65,-36.85 2.02,-6.58 21.88,-42.32 31.95,-69.19 33.59,-89.58 31.09,-169.47 8.81,-260.04l-17.58 -49.54c-5.92,-14.29 -19.79,-35.12 -23.18,-46.16 -15.6,-17.52 -16.2,-34.01 -68.97,-86.58 -12.9,-12.85 -26.35,-23.97 -41.31,-35.91 -6.71,-5.36 -43.84,-27.91 -45.38,-30.2 -12.62,-3.91 -36.22,-16.47 -50.83,-22.81 -18.91,-8.21 -34.59,-12.54 -54.84,-17.39 -42.84,-10.24 -80.2,-13.3 -124.32,-11.25z"/>
 </g>
</svg>
