<?xml version="1.0" encoding="UTF-8"?>
<!DOCTYPE svg PUBLIC "-//W3C//DTD SVG 1.1//EN" "http://www.w3.org/Graphics/SVG/1.1/DTD/svg11.dtd">
<!-- Creator: CorelDRAW 2020 (64-Bit) -->
<svg xmlns="http://www.w3.org/2000/svg" xml:space="preserve" width="20mm" height="20mm" version="1.1" style="shape-rendering:geometricPrecision; text-rendering:geometricPrecision; image-rendering:optimizeQuality; fill-rule:evenodd; clip-rule:evenodd"
viewBox="0 0 2000 2000"
 xmlns:xlink="http://www.w3.org/1999/xlink"
 xmlns:xodm="http://www.corel.com/coreldraw/odm/2003">
 <defs>
  <style type="text/css">
   <![CDATA[
    .fil0 {fill:#50FCBA}
   ]]>
  </style>
 </defs>
 <g id="Layer_x0020_1">
  <metadata id="CorelCorpID_0Corel-Layer"/>
  <g id="_2615238771296">
   <path class="fil0" d="M992.47 1857.53c-469.44,0 -850,-380.56 -850,-850 0,-469.44 380.56,-850 850,-850 469.44,0 850,380.56 850,850 0,469.44 -380.56,850 -850,850zm0 -69.73c-430.94,0 -780.27,-349.33 -780.27,-780.27 0,-430.94 349.33,-780.27 780.27,-780.27 430.94,0 780.27,349.33 780.27,780.27 0,430.94 -349.33,780.27 -780.27,780.27z"/>
   <path class="fil0" d="M992.47 1739.44c-404.22,0 -731.91,-327.69 -731.91,-731.91 0,-404.22 327.69,-731.91 731.91,-731.91 404.22,0 731.91,327.69 731.91,731.91 0,404.22 -327.69,731.91 -731.91,731.91zm-359.66 -1134.26c-15.69,13.18 -29.84,25.8 -40.85,41.06 23.84,57.23 39.71,86.39 48.85,103.2 6.76,12.42 10.54,19.35 12.13,27.3l-0.09 0.01c2.82,14.06 -0.63,20.63 -8.43,35.47 -4.05,7.71 -9.98,18.99 -17.39,37.47 -6.2,15.46 -9.55,27.2 -12.07,36.04 -5.59,19.61 -8.35,29.29 -24.34,40.2 -11.33,7.74 -27.81,13.29 -60.29,24.22 -18.8,6.34 -43.4,14.62 -76.19,26.41l1.01 59.66c12.77,4.68 26.04,9.41 39.51,14.15 11.31,3.97 33.29,11.52 55.17,19.03 56.26,19.32 57.99,26.38 65.88,58.63 2.04,8.34 4.75,19.41 11.31,35.19 6.45,15.48 11.05,25.73 14.6,33.62 9.96,22.16 13.89,30.9 11.17,44.47 -1.7,8.53 -5.39,14.05 -11.48,23.16 -9.01,13.48 -25.66,38.41 -49.37,101.88 5.29,6.96 11.51,13.82 18.19,20.47 7.32,7.29 15.04,14.23 22.67,20.77 19.64,-6.69 52.13,-22.65 74.31,-33.55 5.68,-2.79 10.74,-5.28 14.59,-7.12l0 -0.09 0.31 -0.15 0.04 0.07c31.85,-15.27 44.15,-21.16 58.74,-20.07 10.75,0.81 17.09,4.54 27.39,10.62 6.91,4.07 16.56,9.75 32.88,16.6l-0.01 0.03c15.84,6.64 26.67,9.49 34.57,11.58 32.95,8.69 35.09,9.26 55.88,68.54 1.66,4.76 3.11,9.15 4.85,14.46 8.05,24.54 22.41,68.34 27.81,75.84 5.54,1.94 17.1,5.33 29.4,5.47 11.04,0.13 22.83,-2.49 29.5,-12.33 1.41,-2.08 2.73,-4.68 3.93,-7.86 14.23,-37.75 22.74,-63.64 28.59,-81.44 7.14,-21.73 10.78,-32.81 17.34,-41.69 9.14,-12.39 17.16,-14.68 33.52,-19.35 8.63,-2.46 20.83,-5.94 38.52,-13.31 14.38,-5.99 23.65,-11.27 30.64,-15.25 30.15,-17.17 33.73,-19.2 89.04,8.55 13.67,6.85 29.71,14.56 47.9,23.03 12.87,5.99 25.76,11.82 38.59,17.46 6.2,-4.5 12.69,-10.14 19.05,-16.32 8.32,-8.1 16.18,-16.91 22.78,-25.26 -11.48,-29.1 -28.8,-63.64 -41.71,-89.38l-0.6 -1.21c-26.33,-52.49 -23.85,-56.68 -6.87,-85.39 4.2,-7.11 9.85,-16.66 16.08,-31.61 8.06,-19.35 12.3,-32.4 15.23,-41.44l0.02 0.01c5.64,-17.39 8.09,-24.89 19.78,-32.73 7.05,-4.72 14.11,-6.6 26.48,-9.89 17.66,-4.7 49.21,-13.09 109.69,-38.41l-0.75 -59.34c-61.04,-26.31 -92.38,-34.21 -109.55,-38.53 -11.7,-2.94 -18.4,-4.64 -25.52,-9.56 -11.16,-7.71 -13.72,-15.26 -19.71,-32.94 -3.36,-9.94 -8.26,-24.42 -16.92,-44.88 -6.23,-14.7 -11.56,-23.93 -15.44,-30.67 -17.2,-29.81 -17.39,-30.14 8.81,-85.8 4.96,-10.52 9.51,-19.63 14.2,-29.04 9.78,-19.57 20.17,-40.38 27.26,-58.32 -5.78,-7.69 -13.12,-15.96 -21.02,-23.72 -7.09,-6.96 -14.48,-13.34 -21.36,-18.27 -47.84,20.71 -76.06,35.31 -94.2,44.69 -16.97,8.77 -26.25,13.58 -36.37,15.43 -15.83,2.9 -23.77,-1.14 -41.28,-10.05 -8.9,-4.53 -21.19,-10.78 -37.86,-17.6 -16.99,-6.95 -28.13,-9.64 -35.85,-11.49 -11.26,-2.71 -18,-4.33 -25.99,-11.48 -9.89,-8.85 -13.79,-20.13 -23.48,-48.17l-3.65 -10.52 -0.02 0c-2.99,-8.57 -6.06,-18.6 -9.2,-28.83 -6.57,-21.46 -13.48,-44.03 -22.16,-59.22l-0.38 -0.02c-35.5,-2.16 -51.85,-3.16 -57.12,1.49 -5.74,5.05 -10.63,20.97 -19.67,50.46 -4.12,13.42 -8.93,29.1 -13.68,43.53 -18.63,56.6 -27.14,58.6 -58.59,65.98 -8.5,1.99 -19.69,4.62 -34.95,11.16 -14.44,6.19 -23.68,11.64 -30.4,15.6 -10.72,6.33 -17.22,10.16 -28.66,10.68 -14.74,0.67 -27.04,-5.6 -58.3,-21.51l-3.39 -1.73c-19.71,-10.03 -59.93,-30.52 -83.05,-38.15zm551.3 251.96c-10.47,-13.17 -22.22,-24.21 -34.93,-32.46l-18.74 -12.17 39 -64.95 17.91 6.51c22.96,8.33 44.9,26.4 63.83,51.27 27.22,35.77 49.15,86.72 58.93,142.88 9.75,56.01 7.54,117.72 -13.38,175.38 -17.66,48.67 -48.54,94.23 -96.59,130.8l-12.44 9.47 -13.42 -7.93c-9.06,-5.36 -14.45,-9.35 -19.82,-16.16 -4.87,-6.17 -7.88,-12.4 -12.64,-22.9l-7.45 -16.42 14.16 -11.25c19.83,-15.76 35.77,-33.61 48.2,-52.75 29.24,-45.04 39.55,-97.85 35.8,-148.02 -3.75,-50.23 -21.51,-97.43 -48.42,-131.3zm-345.8 373.83l-35.27 35.08 -15.7 -10.27c-28.75,-18.8 -52.14,-43.83 -70.31,-72.83 -32.67,-52.13 -48,-117.03 -46.99,-181.15 1.02,-64.19 18.37,-128.05 51.04,-178.01 18.07,-27.62 40.96,-51.17 68.56,-68.46l18.98 -11.9 45.4 67.27 -18.17 13.17c-22.73,16.48 -46.04,45 -62.53,81.3 -14.16,31.18 -23.13,67.76 -22.23,106.98 1.93,84.34 40.92,129.18 66.86,159.01 10.51,12.09 19.25,22.13 24.71,32.95l7.57 15 -11.92 11.86zm77.16 -218.83c-15.76,-8.7 -30.75,-16.98 -44.64,-23.21l-21.67 -9.71 10.24 -21.41c6.06,-12.67 32.9,-42.5 63.56,-73.78 38.65,-39.43 84.61,-82.86 100.68,-95.29l15.64 -12.09 56.95 53.55 -118.2 121.57c14.25,8.18 31.5,16.89 49.18,25.83 32.24,16.28 65.9,33.28 91.72,52.45l21.57 16.01 -185.63 185.41 -14.64 -6.67c-19.37,-8.83 -22.51,-13.06 -31.26,-24.85 -1.44,-1.93 -3.1,-4.18 -4.55,-6.03l-12.61 -16.08 113.27 -114.52 -53.82 -31.99c-13.05,-6.62 -24.62,-13.01 -35.79,-19.19zm49.54 533.14l0.03 -0.04 -0.22 -0.11 0.19 0.15zm-93.59 -1063.86c9.73,-25.67 20.82,-54.92 24.77,-76.78l3.48 -19.33 175.17 2.49 6.7 10.35c12.19,18.83 24.11,55.26 33.63,84.37 2.87,8.77 5.5,16.79 8.26,24.52 2.4,6.71 5.68,16.47 8.33,24.35 3.9,11.6 5.71,16.97 6.12,17.39 0.38,0.39 2.65,0.6 8.29,2.45 7.62,2.5 18.02,5.91 32.73,12.02l13.79 5.85c14.38,6.09 20.98,8.89 23.52,8.7 1.86,-0.13 6.86,-2.77 16.07,-7.62 6.47,-3.41 14.61,-7.7 27.21,-13.74 6.95,-3.34 14.61,-7.26 22.57,-11.35 25.57,-13.12 54.17,-27.8 78.23,-33.01l12.97 -2.81 8.99 9.8c9.76,10.64 18.76,18.41 27.8,26.21 7.01,6.05 14.04,12.13 21.65,19.56 8.64,8.44 16.47,16.97 24.35,25.56 7.67,8.34 15.4,16.76 22.72,23.95l8.52 8.38 -1.9 11.77c-3.85,23.92 -23.36,63.69 -37.29,92.11 -2.22,4.52 -4.28,8.73 -7.82,16.21 -6.73,14.2 -11.9,23.56 -15.73,30.51 -3.35,6.08 -5.15,9.13 -5.15,9.24 -0.02,0.23 2.01,4.82 6.4,14.76 2.55,5.77 5.64,12.74 8.47,19.5 20.47,48.75 21.53,49.01 44.61,54.63 21.87,5.33 56.64,13.82 117.74,41.74l11.29 5.17 1.96 12.26c4.09,25.66 5.32,50.45 5.09,75.2 -0.24,25.12 -1.85,48.58 -3.52,72.8l-0.88 12.81 -11.28 6.06c-22.67,12.19 -57.57,23.91 -87.75,34.04 -2.75,0.93 -5.19,1.75 -18.6,6.36 -7.94,2.73 -16.63,5.56 -23.8,7.89 -12.7,4.13 -18.46,6.01 -18.95,6.5 -0.25,0.24 -0.77,2.79 -2.62,8.34 -2.73,8.17 -6.51,19.52 -13.62,35.92l-3.83 8.86c0.15,-0.32 0.28,-0.61 0.01,0.01 -6.92,15.83 -10.01,22.9 -9.77,25.64 0.19,2.1 2.95,7.21 7.93,16.44 3.62,6.68 8.13,15.03 13.79,26.54l0 0.09c4.5,9.16 0.45,0.76 5.02,9.91l-0.07 0.04c13.84,27.67 35.44,70.88 38.23,97.98l1.46 14.15 -13.58 8.66 -3.94 3.36 -0.09 0c-25.97,22.09 -41.67,40.37 -53.06,53.64 -16.76,19.51 -26.48,30.83 -46.77,33.63 -22.98,3.18 -48.58,-9.34 -109.52,-39.16 -4.07,-1.99 -7.87,-3.85 -30.96,-15.05 -17.28,-8.38 -19.78,-7.02 -27.93,-2.59 -5.64,3.07 -12.54,6.82 -21.82,10.87 -9.85,4.28 -17.35,6.93 -23.73,9.17 -24.24,8.55 -24.37,8.59 -66.91,149.04l-4.42 14.6 -15.18 1.73c-22.62,2.59 -48.55,5.13 -75.29,5.57 -27.21,0.45 -54.44,-1.39 -78.37,-7.75l-10.12 -2.7 -4.67 -9.28c-11.94,-23.75 -21.2,-51.86 -29.71,-77.75l-0.03 0.01c-3.89,-11.83 -7.65,-23.25 -9.9,-29.49 -5.08,-14.11 -6.49,-18.19 -7.61,-21.44l-6.18 -17.98 -0.02 0.03c-0.87,-0.84 -1.46,0.13 -5.6,-1.12 -8.05,-2.43 -19.73,-5.96 -38.5,-14.18l-0.73 -0.32c-21.74,-9.51 -30.5,-13.34 -33.32,-13.08 -0.98,0.09 -4.64,2.17 -10.75,5.63 -7.54,4.27 -17.53,9.93 -32.05,16.63 -7.88,3.63 -16.1,7.69 -24.67,11.91 -24.65,12.16 -52.08,25.68 -73.95,31.52l-12.67 3.38 -115.58 -112.07 1.1 -11.12c2.81,-28.38 20.52,-62.15 35.28,-90.32 3.15,-5.99 6.14,-11.69 10.23,-20.08 1.88,-3.84 5.84,-11.71 9.2,-18.39 6.89,-13.69 10.19,-20.25 10.25,-22.58 0.04,-1.66 -2.24,-6.63 -6.61,-16.13l-0.04 0.01c-2.65,-5.76 -5.92,-12.86 -10.66,-24.16 -4.81,-11.43 -7.98,-19.95 -10.44,-26.55 -2.81,-7.58 -3.96,-11.12 -4.09,-11.23 -0.25,-0.22 -4.81,-1.64 -13.84,-4.45 -7.61,-2.37 -17.54,-5.46 -30.85,-10.17 -6.25,-2.2 -13.58,-4.61 -21.43,-7.19 -28.79,-9.45 -64.19,-21.06 -82.96,-34.73l-8.01 -5.84 -1.34 -9.77c-3.35,-24.55 -5,-49.58 -4.91,-74.71 0.09,-25.18 1.88,-50.08 5.4,-74.33l2.03 -13.91 13.31 -4.69c14.67,-5.16 42.27,-14.96 70.76,-25.08l31.13 -11.05c11.08,-3.92 18.45,-6.36 24.41,-8.34 11.29,-3.74 16.6,-5.5 17.08,-5.96 0.09,-0.09 1.12,-3.32 3.41,-9.76 2.6,-7.29 6.08,-17.05 11.99,-30.84 2.89,-6.75 0.47,-1.01 4.52,-10.37 7.49,-17.3 10.91,-25.2 10.7,-28.68l0 -0.09c-0.13,-2.33 -3.01,-7.78 -8.3,-17.79 -3.59,-6.8 -7.99,-15.12 -12.37,-24.11 -6.78,-13.92 -8.76,-17.88 -10.76,-21.87 -11.77,-23.47 -23.08,-46.02 -32.47,-71.41l-3.51 -9.51 4.69 -9.09c18.87,-36.55 52.94,-65.94 83.93,-92.68 6.03,-5.21 11.96,-10.32 19.41,-17.02l9.19 -8.26 11.96 3c26.18,6.56 68.8,28.11 96.03,41.89l8.35 4.21 -0.01 0.04c9.67,4.86 16.78,8.65 22.58,11.75 9.94,5.3 14.92,7.95 16.31,8.03 1.09,0.06 5.76,-1.96 15.08,-5.98l0 -0.09c4.75,-2.05 10.51,-4.55 22.32,-9.27l-0.01 -0.03c13.4,-5.36 22.26,-8.41 29.05,-10.75l11.71 -4.06c0.41,-0.43 2.06,-5.46 5.46,-15.83 2.22,-6.81 5,-15.3 8.75,-25.81 2.56,-7.19 5.87,-15.92 9.33,-25.06zm558.69 724c-0.34,0.79 -0.16,0.37 0,0z"/>
  </g>
 </g>
</svg>
