<?xml version="1.0" encoding="UTF-8"?>
<!DOCTYPE svg PUBLIC "-//W3C//DTD SVG 1.1//EN" "http://www.w3.org/Graphics/SVG/1.1/DTD/svg11.dtd">
<!-- Creator: CorelDRAW 2020 (64-Bit) -->
<svg xmlns="http://www.w3.org/2000/svg" xml:space="preserve" width="20mm" height="20mm" version="1.1" style="shape-rendering:geometricPrecision; text-rendering:geometricPrecision; image-rendering:optimizeQuality; fill-rule:evenodd; clip-rule:evenodd"
viewBox="0 0 2000 2000"
 xmlns:xlink="http://www.w3.org/1999/xlink"
 xmlns:xodm="http://www.corel.com/coreldraw/odm/2003">
 <defs>
  <style type="text/css">
   <![CDATA[
    .fil0 {fill:#50FCBA}
   ]]>
  </style>
 </defs>
 <g id="Layer_x0020_1">
  <metadata id="CorelCorpID_0Corel-Layer"/>
  <path class="fil0" d="M992.47 1857.53c-469.44,0 -850,-380.56 -850,-850 0,-469.44 380.56,-850 850,-850 469.44,0 850,380.56 850,850 0,469.44 -380.56,850 -850,850zm-668.27 -557.18l802.54 0c64.26,-0.17 30.26,5.99 82.38,33.57 0,57.74 -21.36,204.26 -21.36,262.43 0,12.98 29.56,46.24 53.93,-7.1l123.06 -288.9 295.99 0c-10.22,43.89 -71.56,132.28 -103.29,171.34 -5.83,7.17 -10.01,10.41 -15.71,17.86 -5.7,7.44 -8.99,10.58 -16.02,17.55 -12.48,12.37 -22.72,22.59 -35.08,35.1 -69.99,70.81 -168.97,122.48 -261.02,157.04 -183.22,68.79 -398.76,44.49 -568.75,-39.82 -36.14,-17.93 -95.32,-55.77 -125.44,-82.06 -84.06,-73.36 -116.73,-106.67 -176.34,-205.1 -5.39,-8.92 -9.24,-14.71 -13.57,-23.04 -3.88,-7.46 -6.98,-14.04 -11.19,-22.38 -5.57,-11.03 -5.96,-17.16 -10.13,-26.49zm1260.26 -137.31l34.29 32.83 99.24 -97.64c-8.08,40.62 -10.94,75.44 -24.04,116.33 -3.7,11.56 -8.9,24.3 -11.85,36.97l-299.04 0c-2.44,-29.27 -78.75,-75.64 -85.44,-100.7 5.7,-8.52 12.06,-13.4 19.59,-23.12l132.31 -151.48c5.25,-7.27 5.87,-6.75 6.77,-17.64l265.48 0c0,81.4 26.12,39.48 -66.37,131.97 -17.52,17.53 -59.45,55.3 -70.94,72.48zm-567.58 15.25c0,16.7 18.04,28.16 34.15,39.09 11.82,8.02 35.18,23.76 42.14,34.15l-790.33 0c-8.53,-36.6 -21.28,-60.79 -30.58,-115.89 -8.24,-48.77 -7.26,-75.15 -10.86,-99 -3.85,-25.5 0.18,-52.37 2.38,-77.99l936.19 -0.06c-3.42,12.8 -14.22,17.49 -21.81,27.01l-119.38 133.9c-6.09,6.27 -6.06,7.39 -10.93,13.47 -10.08,12.6 -30.97,27.87 -30.97,45.32zm-741.51 -317.35l796.44 0c13.96,0 58.63,40.69 64.08,48.82l-866.62 0c0,-19.96 5.72,-31.46 6.1,-48.82zm1095.48 0l338.72 0c1.34,16.19 6.1,30.22 6.1,48.82l-292.94 0c-9.45,0 -46.35,-40.56 -51.88,-48.82zm-378.38 -585.88c165.22,0 356.06,66.34 476.77,179.3l61.11 57.89c71.47,74.25 144.87,204.84 167.01,299.87l-381.63 -0.2c-18.82,0.3 -30.32,6.12 -30.32,24.61 0,16.95 35.37,46.04 52.64,63.32 15.12,15.12 45.2,48.65 60.27,58.74l-133.54 153.3c-42.83,48.2 -38.71,42.16 15.29,96.15 12.99,12.99 34.69,37.59 48.06,46.54 -3.98,17.1 -10.95,27.12 -17.44,43.59l-38.33 89.83c-4.77,11.13 -13.31,35.27 -20.52,43.57 0.3,-13.12 4.29,-39.66 5.62,-52.36 8.95,-85.64 8.52,-60.09 -60.59,-115.42l-118.96 -88.55c6.4,-9.56 14.25,-15.3 22.65,-26.17 24.92,-32.26 113.03,-124.62 152.14,-171.32 27.05,-32.3 -17.95,-51.45 -59.62,-88.56l-76.42 -63.95c-20.83,-18.08 -21.71,-13.15 -57.06,-13.12l-772.02 0c32.35,-138.88 136.58,-284.98 246.21,-373.25 40.22,-32.38 45.12,-35.32 91.95,-63.67 59.81,-36.21 153.74,-73.6 225.9,-85.35 42.49,-6.91 90.62,-14.79 140.83,-14.79zm-781.18 704.89l0 54.92c0,157.39 70.36,335.27 161.31,448.99 67.57,84.5 130.31,141.39 225.62,198.53 20.48,12.28 40.36,22.24 61.63,32.98 70.54,35.61 199.2,73.22 305.15,73.22 88.84,0 129.04,-0.52 216.09,-21.93 45.09,-11.09 100.83,-29.65 139.96,-49.23 89.62,-44.84 104.79,-57.5 173.19,-110.6l49.79 -44.81c9.65,-9.7 13.17,-13.46 21.66,-24.11 7.72,-9.67 15.47,-14.83 23.59,-25.23 48.52,-62.09 74.3,-97.74 111.18,-172.61 35.64,-72.36 73.19,-197.57 73.19,-305.2 0,-117.6 -6.51,-181.79 -44.59,-291.07 -7.6,-21.78 -17.66,-47.26 -27.61,-66.99 -48.69,-96.58 -69.83,-124.89 -132.99,-196.56l-72.47 -70.96c-78.48,-60.58 -140.24,-103.61 -239.91,-138.46 -247.83,-86.65 -537.12,-45.63 -740.06,116.71 -34.53,27.62 -69.92,57.33 -98.13,91.07 -7.7,9.21 -14.46,13.58 -22.24,23.53 -52.77,67.54 -71.86,94.85 -111.14,172.65 -35.61,70.54 -73.22,199.2 -73.22,305.16zm949.01 -494.34c32.66,21.87 66.91,70.14 74.64,114.55 4.95,28.38 1.65,80.96 1.65,114.31l-61.03 0c1.14,-13.79 32.28,-73.24 -12.21,-73.24l-585.88 0 0 -73.23 106.8 0c13.85,0 17.22,24.41 39.67,24.41l445.51 0c10.67,0 18.31,-13.2 18.31,-27.46l-27.46 -79.34zm-94.6 -112.91c0,13.39 23.39,70.38 29.63,86.34 5.8,14.8 10.8,28.4 15.79,42.18 4.43,12.22 10.52,31.74 15.61,42.37l-387.32 -0.22c-15.92,-2.85 -21.35,-24.2 -33.78,-24.2l-158.68 0c-7.34,0 -18.31,10.97 -18.31,18.31 0,161.79 -12.88,152.68 51.88,152.58l546.21 0c-1.14,13.79 -32.28,73.23 12.21,73.23 154.42,0 146.58,13.08 146.47,-54.92 -0.12,-75.75 16.96,-122.34 -34.74,-200.23l-114.02 -123.99c-10.53,-10.52 -29.32,-35.86 -46.53,-35.86 -14.76,0 -24.42,9.65 -24.42,24.41zm-317.35 1220.6c19.05,4.43 28.09,11.82 43.47,26.71 21.97,21.26 35.48,22.11 63.33,22.11 54.38,0 64.56,-48.82 94.6,-48.82 39.44,0 36.51,48.82 103.75,48.82l0 -48.82c-10.88,-2.54 -15.42,-3.54 -23.6,-9.98 -42.93,-33.8 -35.1,-38.85 -92.36,-38.85 -14.19,0 -36.68,14.24 -45.02,22.12 -7.53,7.12 -9.92,8.89 -18.01,15.55 -31.32,25.77 -45.81,1.17 -68.14,-16.35 -8.99,-7.05 -7.92,-8.25 -19.97,-13.6 -17.35,-7.69 -19.25,-7.72 -38.05,-7.72l0 48.83zm73.24 -195.3c51.45,11.99 32.22,48.82 109.85,48.82 18.76,0 39.07,-11.1 49.59,-20.59 42.51,-38.35 43.43,-37.88 85.56,-1.65 19.13,16.46 33.7,22.24 60.14,22.24l0 -48.82c-50.01,-11.65 -34.72,-48.82 -106.8,-48.82 -54.37,0 -64.56,48.82 -94.59,48.82 -22.75,0 -30.44,-15.6 -43.96,-26.23 -20.9,-16.43 -32.38,-22.59 -59.79,-22.59l0 48.82zm-390.59 0c10.87,2.53 15.41,3.53 23.59,9.97 41.54,32.69 33.26,38.85 89.31,38.85 43.68,0 60.46,-48.82 88.5,-48.82 37.82,0 38.91,48.82 103.75,48.82l0 -48.82c-49.73,-11.58 -34.28,-48.82 -109.86,-48.82 -47.65,0 -63.87,48.82 -91.54,48.82 -37.62,0 -37.76,-48.82 -103.75,-48.82l0 48.82zm957.41 -235.72l36.7 35 146.38 -147.9 -33.48 -35.2 -149.6 148.1zm-878.83 0l36.71 35 146.38 -147.9 -33.49 -35.2 -149.6 148.1zm341.77 0l35.05 33.59 148.05 -146.48 -33.5 -35.21 -149.6 148.1zm-512.65 0l35.05 33.59 148.05 -146.48 -33.5 -35.21 -149.6 148.1zm341.76 0l35.05 33.59 148.06 -146.48 -33.5 -35.21 -149.61 148.1z"/>
 </g>
</svg>
