<?xml version="1.0" encoding="UTF-8"?>
<!DOCTYPE svg PUBLIC "-//W3C//DTD SVG 1.1//EN" "http://www.w3.org/Graphics/SVG/1.1/DTD/svg11.dtd">
<!-- Creator: CorelDRAW 2020 (64-Bit) -->
<svg xmlns="http://www.w3.org/2000/svg" xml:space="preserve" width="20mm" height="20mm" version="1.1" style="shape-rendering:geometricPrecision; text-rendering:geometricPrecision; image-rendering:optimizeQuality; fill-rule:evenodd; clip-rule:evenodd"
viewBox="0 0 2000 2000"
 xmlns:xlink="http://www.w3.org/1999/xlink"
 xmlns:xodm="http://www.corel.com/coreldraw/odm/2003">
 <defs>
  <style type="text/css">
   <![CDATA[
    .fil0 {fill:#50FCBA}
   ]]>
  </style>
 </defs>
 <g id="Layer_x0020_1">
  <metadata id="CorelCorpID_0Corel-Layer"/>
  <g id="_2615242753120">
   <path class="fil0" d="M992.47 1857.53c-469.44,0 -850,-380.56 -850,-850 0,-469.44 380.56,-850 850,-850 469.44,0 850,380.56 850,850 0,469.44 -380.56,850 -850,850zm0 -69.73c-430.93,0 -780.27,-349.34 -780.27,-780.27 0,-430.93 349.34,-780.27 780.27,-780.27 430.93,0 780.27,349.34 780.27,780.27 0,430.93 -349.34,780.27 -780.27,780.27z"/>
   <path class="fil0" d="M992.47 1739.44c-404.22,0 -731.91,-327.69 -731.91,-731.91 0,-404.22 327.69,-731.91 731.91,-731.91 404.22,0 731.91,327.69 731.91,731.91 0,404.22 -327.69,731.91 -731.91,731.91zm207.8 -550.81c-4.31,21.7 -13.93,46.31 -24.29,63.58 -8.55,14.26 -10.29,15.98 -20.11,28.69 -18.61,24.11 -50.41,45.62 -77.65,57.65 -11.41,5.03 -23.69,8.71 -36.95,11.85 -5.94,1.4 -14.55,2.94 -20.82,3.57 -10.19,1.03 -9.23,0.58 -17.65,0.84 -7.64,0.24 0.62,1.08 -11.11,0.06l-17.68 -0.8c-33.67,-2.2 -77.85,-20.81 -104.37,-42.02 -7.02,-5.61 -20.85,-17.34 -25.89,-23.65 -20.59,-25.81 -14.26,-16.42 -30.35,-42.85 -10.82,-17.78 -17.04,-41.07 -20.33,-56.92l407.2 0zm115.13 0c-7.46,34.76 -22.78,73.36 -39.21,100.77 -14.1,23.51 -16.96,26.35 -33.15,47.31 -30.7,39.76 -83.14,75.22 -128.06,95.06 -18.8,8.3 -39.06,14.37 -60.92,19.54 -9.8,2.31 -24,4.85 -34.34,5.89 -16.8,1.7 -15.21,0.95 -29.1,1.38 -12.6,0.39 1.02,1.78 -18.31,0.11l-29.16 -1.33c-55.53,-3.62 -128.38,-34.31 -172.12,-69.28 -11.56,-9.25 -34.37,-28.59 -42.68,-39.01 -33.95,-42.55 -23.53,-27.08 -50.04,-70.65 -16.94,-27.83 -27.05,-63.86 -32.68,-89.79l129.14 0c0.45,2.32 0.92,4.63 1.38,6.93 1.65,8.33 3.67,14.48 5.91,22.19 6.76,23.31 27.31,59.73 43.5,77.02 1.56,1.67 2.15,2.09 3.52,3.87 2.15,2.83 4.58,4.96 7.2,7.58 7.67,7.66 13.72,13.15 22.38,19.77 13.36,10.23 28.59,20.18 44.14,26.84 30.05,12.87 58.92,20.49 93.37,20.49 47.48,0 89.83,-14.35 125.84,-38.3 14.04,-9.34 28.78,-21.84 40.34,-34.34 13.74,-14.85 27.34,-34.94 36.4,-53.05 7.95,-15.91 15.69,-37.95 19.83,-59l96.82 0zm160.77 -0.04c-10.73,50.54 -33.03,106.85 -56.96,146.76 -20.41,34.04 -24.56,38.15 -47.99,68.5 -44.44,57.55 -120.35,108.89 -185.37,137.6 -27.23,12.02 -56.55,20.81 -88.2,28.29 -14.19,3.35 -34.73,7.02 -49.71,8.53 -24.32,2.45 -22.02,1.37 -42.13,2 -18.24,0.56 1.49,2.57 -26.5,0.15l-42.21 -1.92c-80.39,-5.24 -185.84,-49.67 -249.16,-100.3 -16.74,-13.39 -49.76,-41.39 -61.79,-56.46 -49.15,-61.6 -34.05,-39.2 -72.44,-102.28 -24.37,-40.06 -38.98,-91.84 -47.16,-129.33 30.66,0.83 62.15,-1.5 89.37,-1.5l19.49 0 1.46 7.36c2.72,13.73 6.06,23.87 9.75,36.58 11.15,38.43 45.04,98.49 71.73,127 2.57,2.75 3.55,3.45 5.8,6.39 3.56,4.66 7.56,8.18 11.88,12.5 12.63,12.63 22.63,21.69 36.9,32.6 22.04,16.86 47.15,33.28 72.78,44.26 49.57,21.22 97.17,33.78 153.97,33.78 78.3,0 148.14,-23.66 207.51,-63.16 23.16,-15.4 47.47,-36.01 66.52,-56.61 22.66,-24.5 45.09,-57.62 60.03,-87.49 12.6,-25.2 24.88,-59.75 31.88,-93.21l46.58 0c31.14,0 59.16,0.54 83.97,-0.04zm-15.38 -460l-0.06 0c0.95,-53.22 2.5,-152.58 -4.97,-207.91 -4.72,-35.03 -12.9,-55.46 -44.57,-68.68 -25.69,-10.73 -67.38,-14.13 -141.13,-16.1 -69.06,-1.86 -167.84,-2.58 -267.51,-2.4 -105.92,0.19 -212.62,1.41 -285.61,3.4 -73.29,2.01 -114.36,4.91 -139.73,15.13 -31.5,12.68 -39.41,32.51 -44.34,67.47 -6.59,46.74 -7.77,125.41 -7.99,209.78l-0.69 0 -0.15 286.06c66.88,6 226.65,1.89 309.97,1 30.85,-0.33 31.48,-4.23 48.5,11.53 36.32,33.63 86.53,21.37 168.82,21.39 65.89,0.02 24.17,-32.88 87.12,-33.11l322.56 0.37 -0.22 -287.93zm-39.27 0l-178.02 0 0 -0.04c-3.94,0 -7.7,-2.26 -9.44,-6.07l-4.15 -9.08 -16.34 56c-0.99,4.38 -4.76,7.78 -9.46,8.09 -5.74,0.39 -10.7,-3.95 -11.08,-9.68l-2.47 -35.47 -13.94 57.89 0 9.29 -0.03 0c0.01,5.48 -4.28,10.08 -9.83,10.38 -5.73,0.31 -10.63,-4.08 -10.95,-9.81l-1.29 -22.32 -5.1 63.41 0 1.77c-0.01,5.09 -3.73,9.54 -8.92,10.3 -5.68,0.83 -10.97,-3.11 -11.8,-8.79l-28.55 -192.49 -23.86 154.65c-0.7,4.51 -4.33,8.19 -9.08,8.75 -5.71,0.68 -10.89,-3.41 -11.56,-9.12l-8.29 -68.92 -1.04 15.18c-0.21,3.86 -2.59,7.46 -6.4,9.05 -5.31,2.2 -11.4,-0.32 -13.6,-5.62l-17.77 -42.78 -11.16 34.97c-0.98,4.15 -4.47,7.44 -8.96,7.95 -5.71,0.66 -10.87,-3.45 -11.52,-9.16l-3.15 -27.42 -16.33 99.61c-0.77,4.77 -4.8,8.5 -9.81,8.71 -5.73,0.25 -10.58,-4.2 -10.83,-9.93l-5.85 -124.72 -4.91 26.18c-0.59,5.2 -5,9.24 -10.35,9.24l-75.87 0 0 -0.04c-2.16,0.01 -4.33,-0.66 -6.19,-2.04l-11.36 -8.38 -10.71 22.34c-0.1,4.45 -3.08,8.51 -7.59,9.77 -5.53,1.55 -11.27,-1.67 -12.82,-7.2l-9.81 -34.53 -28.94 79.64c-1.09,3.47 -3.96,6.26 -7.77,7.07 -5.63,1.19 -11.15,-2.4 -12.34,-8.02l-23.49 -110.9 -31.71 47.72c-1.8,3.14 -5.18,5.26 -9.06,5.26l-103.79 0c0.21,-83.36 1.33,-160.7 7.53,-204.67 2.87,-20.37 6.67,-31.6 20.36,-37.1 19.81,-7.98 57.43,-10.4 125.89,-12.27 73.04,-2 179.33,-3.22 284.54,-3.41 99.07,-0.18 197.42,0.55 266.44,2.4 68.64,1.84 106.61,4.65 126.83,13.09 14.24,5.95 18.27,17.67 21.05,38.32 7.14,52.92 5.59,150.85 4.65,202.95zm-1015.24 323c29.47,-5.31 434.83,-7.67 454.87,2.44 47.7,24.1 -21.94,28.11 127.74,28.11 144.74,0.01 89.2,3.22 129.93,-25.64 22.68,-16.07 114.02,-7.22 149.28,-7.22 101.27,0 210.27,-3.84 310.57,0.66 1.55,134.44 -61.95,105.62 -238.17,105.62l-692.87 0c-54.53,0 -117.47,2.94 -170.95,-0.03 -61.21,-3.39 -71.18,-45.47 -70.4,-103.94z"/>
  </g>
 </g>
</svg>
