<?xml version="1.0" encoding="UTF-8"?>
<!DOCTYPE svg PUBLIC "-//W3C//DTD SVG 1.1//EN" "http://www.w3.org/Graphics/SVG/1.1/DTD/svg11.dtd">
<!-- Creator: CorelDRAW 2020 (64-Bit) -->
<svg xmlns="http://www.w3.org/2000/svg" xml:space="preserve" width="20mm" height="20mm" version="1.1" style="shape-rendering:geometricPrecision; text-rendering:geometricPrecision; image-rendering:optimizeQuality; fill-rule:evenodd; clip-rule:evenodd"
viewBox="0 0 2000 2000"
 xmlns:xlink="http://www.w3.org/1999/xlink"
 xmlns:xodm="http://www.corel.com/coreldraw/odm/2003">
 <defs>
  <style type="text/css">
   <![CDATA[
    .fil0 {fill:#50FCBA}
   ]]>
  </style>
 </defs>
 <g id="Layer_x0020_1">
  <metadata id="CorelCorpID_0Corel-Layer"/>
  <g id="_2615596715776">
   <path class="fil0" d="M992.47 1857.53c-469.44,0 -850,-380.56 -850,-850 0,-469.44 380.56,-850 850,-850 469.44,0 850,380.56 850,850 0,469.44 -380.56,850 -850,850zm0 -69.73c-430.94,0 -780.27,-349.33 -780.27,-780.27 0,-430.94 349.33,-780.27 780.27,-780.27 430.94,0 780.27,349.33 780.27,780.27 0,430.94 -349.33,780.27 -780.27,780.27z"/>
   <path class="fil0" d="M992.47 1739.44c-404.22,0 -731.91,-327.69 -731.91,-731.91 0,-404.22 327.69,-731.91 731.91,-731.91 404.22,0 731.91,327.69 731.91,731.91 0,404.22 -327.69,731.91 -731.91,731.91zm-84.76 -330.13l13.43 74.72 -196.47 5.76c-12.66,-77.37 2.35,-67.56 65.98,-72.73 46.5,-3.78 70.44,-16.42 117.06,-7.75zm385.92 13.75l20.35 66.14c-46.07,1.73 -171.95,10.15 -178.36,-16.55 -14.94,-62.25 110.46,-52.03 158.01,-49.59zm-586.02 7.05l1.1 58.83 -199.93 2.82c4.1,-76.94 -10.51,-93.32 73,-95.69 67.52,-1.91 88.62,3.57 125.83,34.04zm760.6 -2.27l4.19 66.41 -136.08 1.13c-37.5,-90.56 0.42,-64.9 131.89,-67.54zm-522.86 60.82c-14.86,-68.76 -6.87,-76.35 52.58,-90.19 57.62,-13.41 84.66,-19.58 127.08,23.41 -16.78,86.76 -36.62,68.78 -179.66,66.78zm343.42 -145.35c70.48,-12.16 107.37,-7.63 181.57,-1.93l1.68 65.85c-172.75,0.33 -181.4,29.35 -183.25,-63.92zm-165.63 1.75c30.57,-9.36 75.41,-11.55 108.98,-7.02 39.79,5.36 61.88,44.21 24.28,64.29 -24.22,12.96 -174.93,20.87 -133.26,-57.27zm-607.77 17.97c-6.75,-37.98 -11.74,-92.5 4.24,-128.36 38.71,-24.01 120.69,-19.97 162.62,-7.9 29.82,41.62 27.27,53.1 23.86,104.07 -51.84,44.97 -107.37,64.52 -190.72,32.19zm952.28 -124c33.16,136.17 -118.25,81.56 -121.35,78.48 -25.27,-25.12 -0.15,-68.55 17.92,-76.71 24.63,-11.12 73.53,-2.6 103.43,-1.77zm-167.31 82.65c-30.67,7.41 -176.73,37.41 -169.42,-30.12 1.59,-14.69 13.73,-44.58 19.4,-54.29l177.03 1.65c0.42,42.96 -8.69,56.21 -27.01,82.76zm-411.34 47.86c-29.5,18.31 -135.65,41.18 -178.61,15.39 -4.88,-55.13 -0.99,2.43 15.13,-78.28 12.99,-65.13 19.37,-18.17 36.48,-77.54l132.59 4.16c2.9,56.85 -5.67,36.26 -10.87,67.69 -6.91,41.89 8.71,18.9 5.28,68.58zm448.78 -178.01c8.52,-28.67 1.7,-23.96 44.63,-37.82 41.35,-13.35 45.97,-9.37 88.35,-4.18l0.31 54.33c-51.42,10.36 -103.12,20.65 -133.29,-12.33zm-15.79 -9.04c-23.59,48.63 -86.53,36.75 -134.5,23.42 7.19,-35.58 2.98,-40.76 55.93,-45.72 36.49,-3.41 58.49,5.98 78.57,22.3zm-259.01 19.52c8.74,-42.96 -11.27,-9.44 28.19,-35.68 18.32,-12.18 22.67,-18.22 47.32,-23.4 32.08,25.49 25.63,8.04 32.52,52.1 -25.62,9.67 -76.05,19.12 -108.03,6.98zm-382.21 -10.48c30.96,-29.87 52.95,-36.64 75.66,-10.46 -21.86,30.37 -48.85,35.55 -75.66,10.46zm-119.29 -7.89l-48.5 -2.05 1.55 -63.38 65.97 -8.58c2.29,28.24 1.98,59.26 -19.02,74.01zm285.88 7.76c-34.14,0.76 -65.86,8.54 -75.7,-23.83 -10.27,-33.78 18.46,-47.35 41.11,-63.18l62.8 15.04 -28.21 71.97zm-258.66 -7.25l12.52 -69.4 116.64 11.14c-5.54,39.68 4.3,30.06 -41.59,43.32 -24.88,7.17 -57.08,11.56 -87.57,14.94zm766.44 -65.23c-1.82,27.1 -0.51,36.28 -28.69,39.2 -15.58,1.62 -50.75,-8.13 -57.23,-16.13 -37.32,-46.09 52.04,-41.22 85.92,-23.07zm113.37 -58.72l2.88 71.61c-36.94,1.1 -68.16,2.17 -72.78,-36.22 -5.55,-46.15 32.18,-38.71 69.9,-35.39zm-343.48 47.57c24.47,-23.68 16.06,-24.58 54.92,-12.92 39.79,11.92 26.51,11.25 75.75,8.64 -16.19,58.64 -48.16,70.21 -99.35,37.76 -41.54,-26.33 -16.14,-1.83 -31.32,-33.48zm-350.42 14.69c-24.86,23.61 -73.98,-7.84 -40.38,-40.97 33.26,-32.78 65.49,17.13 40.38,40.97zm-148.37 -16.05l26.97 -60.46 62.54 9.48c1.9,63.72 -32.74,59.15 -89.51,50.98zm-109.85 -15.56l-3.51 -62.6c43.38,-6.96 89.43,3.19 112.55,27.17 -10.35,53.01 -54.88,49.26 -109.04,35.43zm657.65 -24.97c14.11,-38.26 -1.98,-11.78 41.59,-31.59 39.6,14.94 43.87,9.92 45.07,52.1 -42.45,7.92 -66.43,18 -86.66,-20.51zm203.15 37.69c-62.45,-5.2 -85.97,-12.71 -101.93,-27.21 26,-29.25 63.42,-47.91 107.97,-26.79l-6.04 54zm-132.37 -124.28c28.84,-7.97 44.73,-8.02 68.19,4.07 9.48,56.54 -20.49,65.8 -65.5,55.21l-2.69 -59.28zm-578.28 34.25c20.96,-55.52 62.26,-51.77 112.71,-29.98 1.19,86.33 -75.44,65.67 -112.71,29.98zm682.7 -29.31l121.7 -6.43 -2.25 62.39c-60.63,10.27 -114.4,1.48 -119.45,-55.96zm-123.34 29.31c-20.92,12.83 17.62,4.7 -26.08,13.18 -37.5,7.28 -67.7,-2.2 -89.28,-25.88 13.58,-24.52 17.16,-30.56 58.26,-32.49 57.58,-2.7 53.06,0.27 57.1,45.19zm-355.13 -36.56l0.45 36.93c-11.24,4.92 14.32,16.1 -37.4,12.51 -58.47,-4.03 -58.39,-83.95 36.95,-49.44zm-357.67 -11.93c42.87,-10.45 37.88,1.26 79,3.11 41.87,1.91 33.42,-8.57 54.52,24.44 -19.84,36.94 -28.82,34.37 -77.96,25.21 -53.37,-9.91 -53.95,-5.62 -55.56,-52.76zm721.38 -14.34c6.58,-18.84 -16.59,-10.73 11.88,-19.76 36.15,-11.47 23.38,7.56 25.5,9.29 -13.32,30.08 -6.16,33.04 -37.38,10.47zm-117.61 0c-11.04,16.7 5.26,10.6 -14.57,15 -40.82,9.07 -0.64,3.29 -19.25,-3.95 -9.39,-33.55 10.92,-42.71 33.82,-11.05zm332.03 -4.73c-31.38,11.1 -17.37,-5.98 -25.52,-16.2 23.48,-20.22 -29.89,-17.47 28.1,-16.77 1.37,3.27 28.86,21.84 -2.58,32.97zm-556.11 -5.74c7.81,-83.12 82.37,30.01 0,0zm503.41 -20.94c-16.33,36.62 -24.25,30.61 -38.29,0 15.35,-13.55 -6.48,-8.82 19.87,-11.51 33,-3.38 10.92,4.31 18.42,11.51zm-680.16 0c-14.26,33.94 -22.75,32.9 -37.67,0 12.62,-11.49 -5.13,-8.83 18.94,-11.34 34.24,-3.57 7.79,1.14 18.73,11.34zm-144.44 20.34c-36.28,15.49 -14.54,-3.99 -22.61,-9.86 26.15,-22.97 -21.34,-2.49 15.24,-17.03 38.35,-15.24 13.66,2.07 22.66,6.55 -12.72,29.78 14.18,7.77 -15.29,20.34zm721.47 -20.34c15.3,-9.69 -5.35,-29.22 40.08,-10.56 -6.5,35.01 -12.58,49.53 -40.08,10.56zm-146.01 10.76c-39.53,9.52 -8.68,-1.13 -21.82,-10.76 5.53,-6.24 -4.52,-47.57 37.35,-10.47 -5.71,21.37 11.08,14.81 -15.53,21.23zm-389.04 -3.66c-34.35,13.84 -16.98,-3.9 -23.34,-7.1l9.57 -16.58c36.67,-25.27 26.12,4.43 28.38,6.11 -12.22,25.36 11.33,7.12 -14.61,17.57zm-114.66 0.19c-33.79,13.29 -16.8,-4.13 -22.68,-7.29 25.18,-33.25 -34.9,14.03 9.08,-17.21 38.13,-27.07 26.07,4.18 29.54,6.74 -13.41,24.34 9.09,7.9 -15.94,17.76zm551.72 -17.77c-19.39,-6.42 -6,-5.5 -10.07,-20.93 37.8,-26.35 29.9,-4.93 38.61,10.48 -9.32,7.42 18.69,26.09 -28.54,10.45zm-98.23 -31.4c-25.29,49.96 -36.77,10.84 -37.52,10.47 2.22,-2.63 2.86,-7.88 4.38,-9.36l10.99 -11.08c33,-14.2 16.25,5.55 22.15,9.97zm189.38 -10.47c-14.55,20.04 5.23,21.67 -38.23,12.62l1.03 -26.18c44.91,-6.58 23.04,-5.33 37.2,13.56zm117.23 6.84c-29.3,-1.64 -5.61,0.1 -14.01,-17.31 10.15,-8.19 4.99,-21.4 37.66,0 -14.33,22.23 20.24,19.77 -23.65,17.31zm-495.73 -6.84c-14.56,10.99 -1.58,32.94 -38.18,0 7.85,-10.32 -12.2,-18.68 17.45,-21.12 34.73,-2.85 13.52,4.91 20.73,21.12zm-68.95 -22.96l-5.45 31.97 -30.61 -9.01c3.07,-35.03 0.05,-29.87 36.06,-22.96zm-160.56 22.96c2.85,-45.06 35.96,-39.4 33.82,6.79l-33.82 -6.79zm474.4 -20.95c-22.91,26.36 -16.74,28.34 -39.51,0 12.68,-8.76 9.81,-20.98 39.51,0zm-570.19 0c-11.25,26.09 -1.07,39.38 -37.77,10.48 10.39,-16.08 -21.35,-12.78 16.95,-21.48 32.85,-7.47 13.58,5.43 20.82,11zm527.47 282.71c-24.67,43.72 -16.18,16.78 -61.66,45.91l-0.57 57.09c54.35,12.43 67.87,-8.89 71.2,42.61 7.91,122.01 -189.03,120.26 -201.77,105.68 -14.2,-16.24 -15.2,-92.6 23.71,-157.06 -2.49,-1.56 -6.35,-2.22 -8.31,-2.92l-16.51 -5.66c-26.43,-10.08 -32.37,-8.63 -48.71,-43.77 23.48,-31.62 28.73,-29.54 50.46,-41.54 13.84,-7.64 7.69,13.05 15.47,-8.58 1.38,-3.81 5.56,-2.67 7.94,-4.56 -39.71,-0.63 -44.12,5.09 -74.61,-18.61l70.89 -31.42c-1.89,-0.96 -5.16,-1.07 -6.27,-1.27 -1.11,-0.21 -4.92,-0.95 -6.29,-1.21l-25.9 -5.05c-36.27,-16.78 -22.53,-37.99 4.35,-55.41l37.25 -20.82 -0.62 -222.49 -228.77 0c14.12,-30.64 218.18,-242.72 251.18,-251.67 8.03,99.19 -5.86,747.68 5.94,786.24 0.81,2.67 2.93,6.09 3.71,8.18l9.56 14.93c61.4,25.43 42.12,-103.36 41.95,-157.19 -0.55,-165.85 -8.01,-528.83 2.38,-655.79l250.69 254.91 -228.51 6.03 0.66 211.76 52.29 36.51c-16.24,21.18 3.2,7.77 -38.63,18.58 -1.54,0.4 -6.56,3.59 -7.68,1.25 -1.14,-2.38 -5.36,0.22 -7.84,1.1 26.98,17.16 32.21,8.36 54.85,6.05 10.5,-1.09 -4.71,-4.77 25.06,-2.97 23.95,1.46 8.38,-2.39 22.25,8.78 23.25,36.01 -82.01,59.5 -102.57,71.92l63.43 10.46zm-90.57 -673.49c-61.32,17.83 -68.25,-12.64 -50.51,-62.33l50.08 7.48c17.71,31.71 16.04,23.37 0.43,54.85zm-546.94 312.42c-6.74,38.69 -18.88,722.88 8.31,746.3 24.8,21.36 918.13,7.78 928.89,7.77 134.04,-0.19 107.23,54.37 106.63,-319.7 -0.16,-98.17 12.12,-357.16 -6.01,-436.35 -45.4,-10.54 -68,-3.25 -111.54,-5.43 -59.63,-2.99 -114.6,-80.82 -187.91,-155.14 -38.44,-38.97 -80.53,-75.35 -115.93,-114.48 -45.67,-50.48 -12.49,-24.18 -27.49,-89.15 -16.37,-70.9 -124.51,-70.79 -145.73,-1.27 -29.92,98.1 61.43,-5.76 -145.09,200.4 -40.08,39.99 -76.84,74.2 -115.08,115.05 -84.28,90.01 -77.76,15.76 -189.05,52z"/>
  </g>
 </g>
</svg>
