<?xml version="1.0" encoding="UTF-8"?>
<!DOCTYPE svg PUBLIC "-//W3C//DTD SVG 1.1//EN" "http://www.w3.org/Graphics/SVG/1.1/DTD/svg11.dtd">
<!-- Creator: CorelDRAW 2020 (64-Bit) -->
<svg xmlns="http://www.w3.org/2000/svg" xml:space="preserve" width="20mm" height="20mm" version="1.1" style="shape-rendering:geometricPrecision; text-rendering:geometricPrecision; image-rendering:optimizeQuality; fill-rule:evenodd; clip-rule:evenodd"
viewBox="0 0 2000 2000"
 xmlns:xlink="http://www.w3.org/1999/xlink"
 xmlns:xodm="http://www.corel.com/coreldraw/odm/2003">
 <defs>
  <style type="text/css">
   <![CDATA[
    .fil0 {fill:#50FCBA}
   ]]>
  </style>
 </defs>
 <g id="Layer_x0020_1">
  <metadata id="CorelCorpID_0Corel-Layer"/>
  <g id="_2615242730032">
   <path class="fil0" d="M992.47 1857.53c-469.44,0 -850,-380.56 -850,-850 0,-469.44 380.56,-850 850,-850 469.44,0 850,380.56 850,850 0,469.44 -380.56,850 -850,850zm0 -69.73c-430.94,0 -780.27,-349.33 -780.27,-780.27 0,-430.94 349.33,-780.27 780.27,-780.27 430.94,0 780.27,349.33 780.27,780.27 0,430.94 -349.33,780.27 -780.27,780.27z"/>
   <path class="fil0" d="M897.91 482.8c22.63,-9.59 175.75,-6.98 206.29,-1.98l1.24 30.31 -80.23 4.62c-3.85,80.05 11.97,381.78 -7.05,428.65l-30.67 0.75c-23.9,-62.33 -0.03,-336.35 -7.08,-430.57l-82.9 0.41 0.4 -32.19zm254.42 840.3l23 12.38c34.71,20.36 19.17,13.62 24.05,37.84l5.31 15.61c12.73,-39.86 3.38,-39.13 72.61,-52.82 65.14,-12.86 62.57,-9.11 120.28,9.06 105.19,33.11 117.39,48.18 157.7,119.73l-189.65 -0.76c14.32,-13.84 0.32,-6.7 25.62,-19.91 30.74,-16.06 4.72,-4.2 32.94,-11.49 -2.7,-1.03 -7.08,-4.25 -8.38,-2.86 -1.68,1.79 -10.04,-3.5 -16.44,-5.8 -12.68,-4.54 -17.07,-5.77 -31.56,-11.7 -27.91,-11.4 -24.81,-8.23 -43.99,-22.51l59.02 40.46c-19.66,13.52 -42.7,26.15 -77.38,31.34l-360.9 -0.21c34.78,-30.84 56.16,-29.83 40.67,-83.32 -10.57,-36.45 -28.51,-72.87 17.01,-90.05 32.14,-12.14 132.92,-19.77 177.48,-17.67 52.83,2.5 91.09,28.14 124.3,44.92 -85.33,25.83 -68.99,21.9 -151.69,7.76zm265.36 -91.05l-76.93 69.8c-32.79,-9.66 -34.94,-11.28 -71.19,-26.66 -32.29,-13.69 -51.79,-17.07 -87.66,-28.9 11.27,-35.79 33.04,-20.62 49.33,-71.95 9.9,-31.18 18.86,-53.27 72.38,-52.27 103.95,1.94 152.6,39.43 176.78,47.8 30.47,10.55 36.58,5.88 65.98,19.14l-100.11 30.31c-44.74,-17.42 -51.06,-37.19 -117.16,-42.64 42.16,16.09 62.94,32.78 88.58,55.37zm-838.15 -146.61c56.98,4.85 18.2,-3.85 41.86,13.07 13.7,9.79 18.81,22.16 24.73,33.26l-18.64 -46.48 -46.99 0 -0.96 0.15zm412.93 654c-217.79,0 -413.33,-95.16 -547.4,-246.13 233.01,5.57 826.93,-0.59 1026.64,0 21.15,0.07 46.05,0.75 67.57,0.67 -134.06,150.58 -329.34,245.46 -546.81,245.46zm-571.87 -275.15c-6.15,-7.69 -12.14,-15.5 -17.99,-23.44 -2.4,-56.34 -11.7,-124.75 7.98,-173.09 120.01,-29.66 119.63,-30.97 250.26,-17.85 -31.22,42.81 -114.57,28.25 -27.55,100.8 10.54,8.78 6.77,1.67 12.85,15.13l3.77 17.53 23.85 -29.74c73.28,1.45 45.32,0.43 101.18,14.21 -65.29,-35.68 -59.14,-12.63 -140.01,-34.17 -12.87,-39.31 -20.47,-26.01 12.37,-46.45 23.58,-14.68 44.29,-18.45 67.07,-23.47 55.62,19.9 50.61,30.37 80.97,44.03 37.37,16.82 79.25,4.46 141.46,13.48 48.45,128.21 9.66,91.96 -29.91,141.72l-486.3 1.31zm-66.71 -98.95c-59.42,-105.79 -93.33,-227.83 -93.33,-357.81 0,-309.59 192.21,-574.28 463.81,-681.25 -9.47,80.68 -25.77,-36.06 -26.46,141.07 -0.51,127.76 20.95,103.6 136.24,105.44l7.67 0.11c65.15,1.05 38.63,-22.88 109.11,-27.48l-0.42 430.9 104.38 -1.78 2.12 -428.5c92.98,3.51 -12.44,26.39 153.02,26.84 72.66,0.19 98.04,5.6 98.04,-74.51 0,-154.24 2.36,-86.78 -23.26,-153.06 -1.41,-3.63 -2.42,-7.05 -3.15,-10.3 260.39,112.13 442.72,371.01 442.72,672.52 0,126.43 -32.05,245.37 -88.48,349.14 6.46,-201.49 3.67,-572.91 -11.33,-582.77l-63.66 -9.5c-24.89,-0.82 -62.73,0.46 -89.19,0.53l-9.71 0.03 0 27.79c29.08,0.52 66.37,1 115.87,0.5 -32.75,47.01 -59.85,55.29 -115.87,53.62l0 14.72c6.34,-2.39 14.97,-4.8 26.64,-7.25 78.14,-16.44 27.53,8.93 93.94,-27.83l0.77 117.19 -121.35 3.76 0 14.28c41.02,-0.58 85.25,1.44 121.33,1.65l1.08 98.05 -67.16 -6.39c51.63,7.88 19.29,-0.36 53.69,13.55 -22.77,14.53 -11.53,10.78 -46.14,16.69 76.53,0.07 58.06,7.24 60.07,8.1l-3.68 78.6c-165.48,-27.73 16.36,-15.08 -272.99,-67.59 -0.98,-6.39 -1.78,-12.78 -2.31,-19.11l-31.12 0c0.71,5.14 1.54,10.79 2.5,17.04 -56.05,36.17 -116.93,4.27 -197.53,-17.04l-87.83 0c78.72,11.85 149.12,40.67 217.93,51.31 -5.65,41.72 -21.41,86.48 -87.02,112.49 -29.96,11.88 -71.62,10.91 -108.44,17.29 -67.49,11.68 -34.89,16.29 -85.44,33.72 -117.56,0.27 -149.12,-12.34 -191.01,-53.81 40.14,-52.5 58.64,-50.97 182.35,-51.56l36.78 36.6 110.99 -2.92c-25.32,-2.05 -69.37,0.05 -94.83,-7.06 -18.27,-5.11 -19.98,-8.79 -28.97,-20.03l-17.78 -27.78c-24.59,12.64 8.64,5.12 -36.27,8.91 -19.62,1.67 -42.72,-0.55 -62.77,-1.49 19.16,-31.09 23.41,-70.79 58.13,-95.67l-44.36 0c-5.67,69.77 -82.03,114.12 -139.45,148.72 -53.69,-1.32 -109.7,-13.24 -163.04,-9.91 -50.02,3.11 -75.29,19.07 -135.21,20.97 6.22,-131.26 -49.22,-204.36 120.96,-223.26l0 -20.45c-51.39,6.16 -80.8,21.37 -119.59,34.64l-0.97 -224.18c36.53,10.14 74.7,27.97 120.56,41.4l0 -12.78c-36.89,-14.45 -69.09,-31.16 -82.26,-47.21 23.14,0.23 51.74,-0.72 82.26,-1.7l0 -26.78c-83.74,0.71 -139.98,1.9 -147.05,3.81 -37.76,10.2 -32.75,393.08 -23.53,596.78zm1227.6 76.66c-0.52,0.7 -1.02,1.41 -1.54,2.1 -19.1,-20.16 -51.68,-67.46 -74.08,-81.44 -34.07,-21.29 -92.61,-23 -133.11,-51.94 47.23,-60.11 101.6,-87.46 211.65,-107.65l-8.84 63.58 -34.19 -0.75c-26.92,4.24 -38.07,16.49 -63.89,18.54 39.45,-9.86 31.43,-11.78 84.87,-13.86 24.4,52.16 31.67,109.09 19.13,171.42zm-822.81 -1128.23c31.6,-10.65 64.19,-19.16 97.57,-25.44 -0.19,3.59 -0.48,8.32 -1.26,14.54 -1.21,9.62 0.44,43.02 0.35,55.47l49.57 45.02c33.91,36.1 34.74,-0.48 55.3,40.56 -0.01,0 -7.51,20.8 -45.66,6.03l-24.87 -18.34c-0.78,-2.77 -2.91,-2.98 -4.43,-4.39 -1.8,25.52 -0.35,47.03 -0.98,71.8 -0.87,34.19 2.65,31.82 -19.44,42.36 -21.79,-19.71 -6.58,-13 -15.35,-43.44 -0.89,1.89 -1.02,4.7 -1.37,6.12l-2.95 12.45c-1.22,3.87 -2.15,8.84 -3.93,12.29 -5.45,10.61 14.35,12.76 -14.55,13.3 -23.79,0.45 -15.06,-22.47 -15.3,-46.61 -10.68,16.18 -5.36,33.71 -23.23,46.68 -29.59,-13.39 -10.92,-16.75 -23,-46.33 -15.5,24.61 6.41,32.57 -23,44.91 -17.54,-17.18 -10.87,-1.19 -14.03,-34.34l2.41 -114.48c12.92,-45.51 18.35,6.66 26.77,-48.97 1.27,-8.42 1.83,-18.87 1.38,-29.19zm124.71 -30.05c35.59,-5.32 72.01,-8.1 109.08,-8.1 43.56,0 86.23,3.81 127.69,11.12l-1.45 58.25c-25.27,8.75 -14.8,0.26 -31.43,21.21 -23.89,30.08 11.05,9.29 -26.84,26.57 -27.73,12.64 -15.99,-5.08 -35.66,19.09 -20.28,24.93 3.11,13.83 -21.96,35.35 -24.06,-21 -3.91,-12.97 -22.13,-35.14 -19.39,-23.62 -9.52,-7.49 -35.48,-19.94 -42,-20.11 -5.14,-32.06 -59.33,-46.74 0.29,-20.55 3.7,-44.64 -2.49,-61.67zm267.84 9.22c31.05,6.87 61.37,15.68 90.8,26.35 0.18,6.84 0.98,14.65 2.41,23.63 9.16,57.64 14.69,2.47 28.67,54.74 9.2,34.37 8.83,114.84 -9.6,139.69 -26.06,-8 -7.38,2.21 -18.04,-22.01 -9.99,-22.7 9.91,4.08 -4.96,-19.43 -12.19,27.92 7.35,31.16 -23.01,43.48 -19,-12.12 -3.61,-0.92 -12.92,-19.08l-10.71 -25.78c1.4,41.99 9.24,32.35 -14.7,44.72 -24.5,-11.77 -16.7,0.21 -16.55,-43.02 -1.23,1.84 -1.82,4.75 -2.42,6.21l-7.21 17.74c-8.55,17.69 5.71,6.22 -12.16,18.56 -30.64,-21.22 -14.17,-86.69 -18.17,-123.19 -16.01,20.49 -40.5,48.55 -73.03,28.37 12.84,-27.51 24.74,-7.99 53.28,-38.79 31,-33.48 -4.95,-9.81 49.71,-39.02l-1.39 -73.17zm-560.75 446.61c9.95,-16.19 -21.05,-16.18 35.61,-19.96 67,-4.46 289.17,19.13 306.44,-11.16 -7.38,-25.49 16.17,-20.52 -83,-19.54 -71.4,0.71 -260.25,-14.51 -282.4,13.01 -14.57,23.42 -16.25,321.81 -0.27,345.9l22.43 12.9c5.11,1.42 23.67,2.15 29.68,2.21l606.2 -0.84c45.02,-0.02 194.55,10.78 213.75,-13.78 15.4,-24.97 14.09,-324.4 -1.02,-345.18 -18.65,-23.29 -32.44,-14.66 -90.04,-14.21l-199.47 -0.13c-96.87,-1.62 -69.02,-0.67 -75.01,19.66 14.71,25.55 198.77,12.62 259.17,12.1l66.98 2.63c21.6,6.03 2.73,-3.84 15.63,8.61 -3.11,35.01 9.58,23.27 -27.93,28.49 -30.41,4.24 -275.28,-10.13 -312.5,2.63 21.37,19.62 271.92,4.34 340.14,10.81l0.39 257.11 -825.12 -1.98 0.44 -255.75c56.84,-3.47 320.78,8.3 340.55,-10.19 -35.42,-11.92 -286.62,1.14 -312.5,-2.77 -43.81,-6.6 -20.75,5.83 -28.15,-20.57z"/>
  </g>
 </g>
</svg>
