<?xml version="1.0" encoding="UTF-8"?>
<!DOCTYPE svg PUBLIC "-//W3C//DTD SVG 1.1//EN" "http://www.w3.org/Graphics/SVG/1.1/DTD/svg11.dtd">
<!-- Creator: CorelDRAW 2020 (64-Bit) -->
<svg xmlns="http://www.w3.org/2000/svg" xml:space="preserve" width="20mm" height="20mm" version="1.1" style="shape-rendering:geometricPrecision; text-rendering:geometricPrecision; image-rendering:optimizeQuality; fill-rule:evenodd; clip-rule:evenodd"
viewBox="0 0 2000 2000"
 xmlns:xlink="http://www.w3.org/1999/xlink"
 xmlns:xodm="http://www.corel.com/coreldraw/odm/2003">
 <defs>
  <style type="text/css">
   <![CDATA[
    .fil0 {fill:#50FCBA}
   ]]>
  </style>
 </defs>
 <g id="Layer_x0020_1">
  <metadata id="CorelCorpID_0Corel-Layer"/>
  <g id="_2615747483936">
   <path class="fil0" d="M992.47 1857.53c-469.44,0 -850,-380.56 -850,-850 0,-469.44 380.56,-850 850,-850 469.44,0 850,380.56 850,850 0,469.44 -380.56,850 -850,850zm0 -69.73c-430.94,0 -780.27,-349.33 -780.27,-780.27 0,-430.94 349.33,-780.27 780.27,-780.27 430.94,0 780.27,349.33 780.27,780.27 0,430.94 -349.33,780.27 -780.27,780.27z"/>
   <path class="fil0" d="M992.47 1739.44c-404.22,0 -731.91,-327.69 -731.91,-731.91 0,-404.22 327.69,-731.91 731.91,-731.91 404.22,0 731.91,327.69 731.91,731.91 0,404.22 -327.69,731.91 -731.91,731.91zm-84.4 -270.55c38.76,24.05 106.9,66.34 107.81,66.34 1.58,0 32.6,-21.93 50.87,-34.85 5.64,-3.99 10.13,-7.17 12.72,-8.9l67.39 -45.84c10.77,-7.16 177.79,-119.43 292.98,-198.85 42.78,-29.5 78.29,-54.27 95.58,-66.95 -12.9,-7 -29.99,-17.1 -44.86,-25.88 -8.62,-5.09 -16.47,-9.73 -22.03,-12.92l-109 74.39c-5.72,3.8 -10.01,6.89 -14.29,9.97 -4.83,3.48 -9.65,6.96 -14.91,10.45 -5.1,3.39 -7.26,4.8 -9.32,6.15 -6.5,4.25 -12.67,8.3 -18.65,12.43 -11.43,11.83 -93.63,64.45 -113.17,77.33 -5.06,3.35 -9.3,6.43 -13.54,9.51 -4.18,3.03 -8.35,6.06 -14,9.81 -5.27,3.5 -16.11,10.96 -29.77,20.37 -42.49,29.25 -110.89,76.35 -118.76,76.35 -4.8,0 -37.04,-18.55 -76.92,-42.7 -67.13,-40.65 -157.97,-97.18 -169.57,-104.68l0 -0.04c-31.6,-20.43 -70.93,-43.8 -110.43,-67.27 -43.05,-25.58 -86.31,-51.29 -121.99,-74.79l-56.76 46.25c12.16,7.98 35.3,22.5 62.98,39.68 80.83,50.18 196.3,119.7 201.7,122.93 23.86,14.27 47.21,28.73 70.56,43.19 22.66,14.03 45.34,28.07 69.65,42.62 3.26,1.96 12.98,7.99 25.73,15.9zm56.64 -227.86c8.04,4.91 15.84,9.68 21.97,13.25 7.52,-7.39 14,-15.57 19.81,-24.56 7.39,-11.43 13.74,-24.32 19.78,-38.69 4.72,-11.25 12.29,-32.69 17.93,-53.41 1.92,-7.06 3.61,-13.98 4.87,-20.27 -5.86,1.88 -12.32,3.74 -18.74,5.34 -12.34,3.08 -24.93,5.37 -33.75,5.37 -20.61,0 -35.58,-7.72 -47.02,-14.9l-20.09 107.14c9.32,4.9 22.55,12.99 35.24,20.73zm202.94 -109.87c3.32,-9.05 6.06,-18.44 7.2,-27.08 -8.3,-3.99 -16.49,-7.06 -25.15,-8.78 -10.79,-2.14 -22.61,-2.23 -36.72,0.58 -18.1,3.61 -18.28,4.54 -19.33,9.91l-0.4 2.04 -0.05 0.05c-0.63,3.11 -0.61,3.22 -1.82,9.4 -1.98,10.11 -3.78,19.3 -6.59,29.85 -7.87,29.56 -14.83,51.88 -24.59,72.33 -3.86,8.06 -8.11,15.76 -12.97,23.39l30.72 -20.48c5.52,-3.65 9.72,-6.69 13.92,-9.73 4.32,-3.12 8.64,-6.25 13.57,-9.55 6.59,-4.41 11.85,-7.68 16.6,-10.62 15.12,-9.39 24.78,-15.39 31.6,-29.32 4.14,-8.43 9.51,-19.72 14.01,-31.99zm-635.74 -105.67l-58.76 46.17 4 2.49c5.12,3.16 11.41,6.94 17.9,10.8l509.29 312.4 0.09 0.09 3.47 2.17 0.05 0 3.95 2.48 518.68 -355.3c-8.95,-5.08 -19.23,-11.56 -29.39,-17.96 -13.6,-8.58 -26.97,-17.01 -34.63,-20.71l-9.81 6.56 -14.94 9.93 -57.46 39.24c-5.75,3.83 -10.81,7.45 -16.07,11.23 -2.72,1.94 -5.5,3.93 -11.29,7.95l-283.86 192.96 -15.79 11.6c-22.11,16.27 -32.61,23.99 -42.26,26.11 -11.41,2.51 -17.41,-1.58 -28.83,-9.36 -3.66,-2.49 -8.06,-5.49 -13.24,-8.6l-328.06 -201.29 -0.05 0c-15.65,-9.63 -25.3,-15.55 -30.03,-18.42 -7.83,-4.76 -17.77,-10.76 -29.83,-18.01 -7.33,-4.41 -14.32,-8.81 -21.26,-13.19 -10.58,-6.68 -21.09,-13.31 -31.87,-19.34zm102.41 6.34c-2.23,1.22 -4.46,2.38 -6.66,3.46l3.65 2.06c1.94,1.09 3.92,2.2 6.75,3.9l170.65 103.59c-3.75,-12.15 -6.74,-24.42 -9.74,-36.74 -11.96,-49.12 -24.12,-99 -88.76,-136.61 -4.69,5.53 -10.25,11.07 -16.06,16.4 -8.61,7.89 -17.38,15.03 -24.74,20.99 -6.32,5.13 -21.1,15.31 -35.09,22.95zm715.45 -55.35c-1.85,22.64 -3.7,45.33 -4.71,63.13 9.8,-6.63 19.05,-12.92 28.3,-19.21 13.8,-9.38 27.6,-18.76 40.25,-27.27 -5.65,-21.64 -14.93,-47.02 -29.29,-65.68 -8.07,-10.49 -17.78,-18.82 -29.39,-22.9 -0.84,18.89 -3,45.38 -5.16,71.93zm-306.89 97.79c5.12,-1.84 10.04,-3.61 14.7,-5.06 0.67,-5.29 1.7,-10.72 2.63,-15.59 0.57,-3.02 1.1,-5.8 1.48,-8.33 12.24,-83.02 11.54,-83.9 2.74,-95.05 -4.66,-5.9 -10.89,-13.79 -18.36,-28.78 -9.81,-19.65 -16.15,-40.25 -22.44,-60.71 -5.78,-18.8 -11.53,-37.48 -20,-54.7 -1.34,4.7 -2.71,9.38 -4.09,14.07 -5.79,19.68 -11.65,39.61 -15.39,62.45 -3.89,23.78 -6.89,46.14 -9.95,68.93 -1.91,14.26 -3.84,28.67 -5.75,41.89 -1.66,11.42 -3.59,22.12 -5.27,31.46 -5.57,30.88 -7.83,43.42 11.42,54.38 21.08,11.99 46.76,2.77 68.28,-4.96zm129.58 -17.04c3.96,1.2 6.73,2.31 9.09,3.33l4.02 -90.51c-9.4,4.31 -19.94,8.48 -30.9,11.35 -14.09,3.7 -28.75,5.21 -42.6,2.26 -1.01,12.73 -3.04,25.15 -5.07,37.51 -1.85,11.3 -3.7,22.56 -4.64,33.89 13.4,-3.36 25.25,-5.66 42.81,-3 4.24,0.65 5.77,0.86 7.1,1.04 7.18,0.98 12.17,1.66 20.19,4.08l0 0.05zm-593.68 -117.24l-85.08 12.58 76.21 46.71 -0.01 0.02c1.73,1.05 3.42,2.15 5.2,3.3 2.88,1.86 6.08,3.94 7.14,4.5 7.33,1.75 27.94,-8.84 48.44,-22.4 15.79,-10.44 30.75,-22.4 39.35,-31.95l-1.14 -0.36c-20.26,-6.41 -55.57,-17.58 -90.11,-12.4zm309.69 64.2c-13.12,-52.02 -34.78,-137.98 -104.13,-137.98 -4.01,0 -0.3,7.24 -3.11,11.97 -1.31,2.2 -2.39,4.02 -3.42,5.55l-40.23 55.66c14.77,9.05 28.44,19.95 40.59,32.35 15.13,15.44 27.91,33.17 37.55,52.5 11.6,23.24 18.09,49.78 24.21,74.76 4.89,20.03 9.54,39.01 16.23,53.3 2.98,6.35 5.78,12 8.92,17.39l0.02 -0.01c2.99,5.12 6.22,9.86 10.17,14.58 2.37,2.83 7.8,7.11 13.76,10.93 0.99,0.64 1.98,1.25 2.95,1.83 3.69,-17.71 6.71,-35.85 9.77,-54.2 2.39,-14.35 4.81,-28.83 7.63,-43.64l1.31 -6.86c2.03,-10.5 2.95,-15.26 2.67,-17.92 -0.19,-1.78 -1.31,-4.18 -3.36,-8.55 -1.53,-3.26 -3.44,-7.33 -5.45,-12.03 -2.96,-6.94 -5.79,-14.74 -8.38,-22.77 -2.97,-9.16 -5.57,-18.37 -7.7,-26.82l0 -0.04zm338.99 86.56c5.48,5.79 11.11,11.74 15.21,19.15 7.65,-4.34 17.17,-11.33 25.36,-17.34 4.76,-3.5 9.13,-6.71 12.77,-9.13 3.37,-2.23 6.1,-3.99 8.48,-5.52 6.9,-4.46 10.19,-6.58 11.03,-8.09 0.88,-1.59 1.3,-5.6 2.1,-13.27 0.43,-4.16 0.96,-9.25 1.9,-16.49l0 -0.04c0.91,-6.99 0.74,-14.55 0.58,-22.09 -0.13,-5.93 -0.26,-11.85 0.05,-17.64l0 -0.27 7.28 -96.85c-5.79,1.02 -11.46,2.67 -16.84,4.66 -9.52,3.53 -18.13,8.11 -25,12.31l-0.81 0.49c-14.72,8.98 -27.75,16.93 -41.11,25.72 -0.17,11.72 -0.81,22.17 -1.43,32.43 -0.7,11.67 -1.4,23.09 -1.33,35.83 0.1,20.83 -1.59,35.78 -3.33,51.18 -0.61,5.47 -1.24,11.01 -1.81,17.29 2.05,2.54 4.46,5.09 6.9,7.67zm212.27 -340.94l-2.51 -5.49c-11.72,9.61 -28.54,30.55 -43.67,53.69 -14.8,22.64 -27.39,46.8 -31.43,64.01 20.73,5.5 39.4,20.46 54.43,39.03 16.44,20.31 28.75,45.31 34.53,66.67l1.68 -1.18c21.5,-15.07 57.48,-40.28 78.91,-53.53 -5.05,-3.8 -11.23,-7.93 -16.92,-11.74 -4.83,-3.23 -9.35,-6.25 -13.08,-9.04 -5.86,-4.4 -10.1,-7.19 -13.25,-9.26 -5.93,-3.9 -9.05,-5.94 -11.87,-10.53 -2.88,-4.68 -3.61,-9.22 -5.15,-18.79 -0.6,-3.75 -1.36,-8.45 -2.47,-14.52 -7.86,-43.02 -21.06,-71.67 -29.2,-89.32zm-757.89 163c6,2.21 11.91,4.39 18.13,6.21 1.38,-1.64 2.78,-3.21 4.22,-4.82 2.31,-2.58 4.74,-5.3 7.25,-8.67l2.36 -3.19c11.31,-15.18 20.41,-27.4 29.53,-42.59l-5.13 -0.51c-6.43,-0.65 -12.92,-1.3 -22.76,-1.3 -12.17,0 -23.19,-0.34 -31.81,-0.6 -21.49,-0.64 -22.61,-0.68 -30.28,9.96 -3.7,5.13 -6.09,8.3 -8.62,11.64l-3.29 4.37 -0.02 -0.01 -4.47 5.93 0 0.05c-2.62,3.48 -5.18,6.87 -7.68,10.23 22.56,2.24 37.84,7.87 52.57,13.3zm244.43 70.12l0.29 1.02 1.59 -9.73c0.98,-5.97 1.95,-11.84 2.87,-18.2 1.85,-12.67 3.19,-22.3 4.43,-31.16 7.34,-52.46 11.08,-79.19 30.61,-142.67 0.8,-2.59 1.83,-5.41 2.93,-8.43 2.38,-6.51 5.16,-14.12 5.16,-18.2 0,-1.5 -9.96,-10.79 -22.59,-21.74 -15.56,-13.49 -34.58,-27.45 -46.38,-33.32 -5.19,-2.58 -9.86,-4.71 -14.49,-6.46 -1.9,-0.71 -3.85,-1.38 -5.87,-2.02 -8.88,19.3 -29.25,56.03 -47.25,88.49 -10.91,19.68 -20.91,37.72 -26.53,48.37l2.71 0.74c5.66,1.57 11.55,3.19 17.21,5.57 5.36,2.26 10.7,4.92 15.58,7.82 4.81,2.86 9.36,6.02 13.3,9.37 18.29,15.53 30.97,32.81 40.53,51.95 9.35,18.74 15.61,39.06 21.24,61.24l0 0.05c1.78,7.01 3.22,12.15 4.66,17.31zm305.39 -88.42c21.51,-12.98 54.53,-32.53 88.18,-36.57 1.83,-10.25 5.73,-21.6 10.57,-32.78 9.2,-21.3 21.84,-42.39 29.39,-53.45 16.31,-23.92 32.72,-40.44 45.01,-52.82 4.6,-4.64 8.58,-8.64 11.52,-12.01 -5.51,-10.66 -20.54,-29.82 -37.71,-45.38 -13.25,-12 -27.19,-21.32 -37.49,-21.32 -0.95,0 -3.05,4.8 -8.78,11.16 -12.56,13.96 -27.55,33.51 -31.56,39.16 -18.75,26.45 -32.58,55.88 -43.11,86.73 -10.63,31.16 -17.9,63.82 -23.46,96.4 -1.03,6.03 -1.68,12.27 -2.31,18.45l-0.25 2.43zm-166.77 -42.77c4.39,13.58 8.77,27.1 13.11,38.58 0.97,-11.43 2.27,-23.36 3.81,-35.11 3.44,-26.13 8.13,-51.31 13.09,-68.03 17.08,-57.57 32.52,-73.64 45.93,-87.6 2.7,-2.81 5.3,-5.52 7.74,-8.47 -8.94,-17.22 -33.67,-65.41 -45.98,-95.02 -11.35,16.36 -27.87,44.79 -43.16,73.63 -20.15,38 -37.66,75.66 -37.66,85.84 0,2.64 4.71,6.09 9.48,14.97 5.02,9.33 10.11,18.8 11.34,21.24 8.03,15.9 15.19,38 22.3,59.97zm-373.32 -35.97c26.85,-0.15 52.4,-0.11 75.77,4.11 4.3,-7.84 10.31,-18.55 17.2,-30.82 19.37,-34.52 45.68,-81.39 57.31,-105.16 -20.29,-0.58 -44.49,-1.18 -53.03,4.5l-72.56 96.08 -0.02 -0.02c-1.9,2.53 -4.44,5.69 -7.5,9.49 -5.15,6.39 -11.81,14.67 -17.17,21.82zm493.36 107.46l1.52 -0.83c0.75,-37.96 7.65,-78.97 18.69,-118.34 12.33,-43.93 29.91,-86 49.91,-119.58 1.73,-2.91 3.41,-5.65 5.05,-8.24l-4.46 4.65c-21.12,22.07 -40.56,42.38 -74.89,37.58 -3.47,4.52 -6.94,8.38 -10.43,12.27 -12.41,13.84 -25.22,28.12 -38.15,80.41 -2.28,9.26 -6.76,40.33 -10.51,71.26 -2.77,22.69 -5.12,45.11 -5.89,58.46 23.69,7.06 48.68,-6.51 69.16,-17.64zm-278.41 -269.49c34.38,10.5 66.96,42.2 84.99,60.99 1.73,-4.44 3.72,-9.23 5.83,-14.1 7.74,-17.82 17.37,-37.53 22.07,-45.24 5.34,-8.77 9.16,-15.88 13.06,-23.14 6.06,-11.26 12.3,-22.85 24.62,-41.66l24.22 -38.92c-3.31,-14.52 -30.15,-45.15 -42.63,-59.31 -14.14,10.02 -25.92,19.91 -36.78,30.61 -12.94,12.77 -24.69,26.84 -37.65,43.77 -11.59,15.17 -23.99,32.76 -35.62,50.71 -7.85,12.11 -15.38,24.42 -22.11,36.29zm-62.26 -12.72c5.99,0.71 13.16,1.58 19.5,2.59 5.49,-9.83 11.27,-19.18 17.21,-28.8 3.48,-5.62 7.02,-11.35 10.92,-17.9 11.28,-18.93 41.21,-60.93 70.3,-93.44 11.31,-12.65 22.67,-23.98 33.11,-32.27 -5.33,0.61 -11.35,2.17 -17.44,4.22 -17.28,5.84 -34.41,15.82 -42.49,21.75 -0.72,0.53 -1.33,1 -1.82,1.39 -6.84,5.53 -60.92,78.12 -77.85,100.86l0 0.04 -4.33 5.81 -0.05 0 -25.7 34.27c3.25,-0.12 6.99,0.04 11.73,0.66l6.91 0.82zm-432.41 310.9l-35.56 -24.08 201.13 -30.74 142.31 -187.34c10.93,-14.58 19.92,-26.34 28.87,-38.07 10.4,-13.61 20.75,-27.16 29.41,-38.71l24.99 -33.32c10.97,-14.61 21.94,-29.23 32.89,-43.86 4.4,-5.89 9.43,-12.92 14.59,-20.14 34.8,-48.68 75.59,-105.73 143.35,-105.73 34.39,0 61.36,17.04 82.73,40.22 20.4,22.13 35.44,49.65 46.92,72.69 2.77,5.55 7.1,15.12 12.32,26.66 18.47,40.81 49.11,108.5 56.48,108.5 4.08,0 14.95,-10.13 28.57,-22.84 27.42,-25.56 64.18,-59.85 109.25,-59.85 30.71,0 59.2,16.97 83.47,40.83 31.74,31.21 56.55,74.67 68.87,105.76 22.23,56.09 26.1,81.15 28.22,94.92l0 0.04c0.76,4.96 1.24,8.07 2.11,9.71 1.71,3.25 7.4,7.22 22.59,17.83 5.35,3.73 11.68,8.16 16.33,11.45 1.79,1.27 4.54,3.15 7.53,5.18 12.11,8.26 27.81,18.95 33.92,28.07l7.02 10.49 -11.17 5.92c-7.49,3.96 -36.83,23.11 -61.59,40.3 -8.53,5.93 -16.39,11.49 -22.36,15.88 1.97,1.21 3.91,2.45 5.8,3.67 2.33,1.49 4.59,2.94 6.15,3.87 5.41,3.24 9.44,5.71 14.11,8.58 20.44,12.59 51.8,31.89 57.93,33.32l11.46 2.67 -3.26 12.21c-1.45,5.4 -2.07,7.69 -4.42,10.66 -1.98,2.5 -3.47,3.4 -6.03,4.96 -0.99,0.59 -2.27,1.37 -3.66,2.31 -2.09,1.44 -8.95,5.96 -17.38,11.52 -17.84,11.75 -43.76,28.84 -58.39,39.28 9.08,5.17 17.74,10.42 26.56,15.75l11.36 6.87 63.38 36.41 -7.51 10.25c-6.22,8.49 -84.2,60.52 -124.02,87.08 -11.5,7.67 -19.72,13.16 -21.89,14.7 -42.33,30.07 -88.04,60.68 -133.63,91.22 -53.48,35.82 -106.82,71.55 -154.11,105.97 -8.96,6.52 -16.66,11.52 -24.77,16.79 -3.46,2.25 -7.02,4.56 -11.95,7.84 -8.1,5.39 -15.34,10.48 -22.99,15.87 -3.13,2.2 -6.18,4.35 -12.65,8.83 -23.88,17.96 -53.85,35.89 -79.26,52.81l-6.32 -4.23c-14.23,-9.53 -28.92,-18.35 -43.76,-27.26 -10.24,-6.15 -20.57,-12.35 -30.83,-18.82l-0.01 0.02 -221.84 -136.48c-35.15,-20.93 -100.29,-59.87 -160.76,-96.88 -38.9,-23.81 -75.79,-46.78 -101.14,-63.45 -3.04,-2 -6.64,-4.03 -10.31,-6.1 -10.36,-5.85 -21.22,-11.99 -27.09,-20.75l-8.86 -13.24 15.37 -4.1c3.81,-1.01 7.66,-4.39 12.75,-8.84 2.49,-2.19 5.2,-4.55 7.14,-6.15l0.05 0 54.4 -44.38 -90.17 -55.7 6.56 -9.8c6.96,-10.39 35.37,-31.52 47.62,-40.63l1.53 -1.15c7.56,-5.63 13.87,-10.77 21.31,-16.86l1.36 -1.1c2.82,-2.31 4.21,-3.39 5.53,-4.41 1.8,-1.4 3.54,-2.75 5.18,-4.12l-67.58 -40.34c-2.42,-1.53 -4.84,-2.93 -7.3,-4.35l0.01 -0.02c-2.38,-1.37 -4.79,-2.76 -6.41,-3.75l-0.45 -0.32z"/>
  </g>
 </g>
</svg>
